<svg xmlns="http://www.w3.org/2000/svg" xmlns:xlink="http://www.w3.org/1999/xlink" viewBox="0 0 1587.25 1353.12"><defs><style>.cls-1{stroke:#070f23;fill:url(#linear-gradient);}.cls-1,.cls-3,.cls-4,.cls-5,.cls-7,.cls-8{stroke-miterlimit:10;}.cls-1,.cls-3{stroke-width:3px;}.cls-2,.cls-5,.cls-9{fill:#030711;}.cls-3{stroke:#050c1e;fill:url(#linear-gradient-2);}.cls-4{fill:#d551e0;stroke:#050d21;}.cls-4,.cls-5{stroke-width:4px;}.cls-5,.cls-7,.cls-8{stroke:#000;}.cls-6{fill:#f87cfc;}.cls-7{fill:#790d7f;}.cls-8{fill:#fff;}.cls-9{font-size:718.73px;font-family:BellMT, Bell MT;}.cls-10{font-size:138.34px;fill:purple;font-family:BellMTBold, Bell MT;}.cls-11{fill:url(#linear-gradient-3);}</style><linearGradient id="linear-gradient" x1="440.5" y1="717.44" x2="80.2" y2="1341.49" gradientUnits="userSpaceOnUse"><stop offset="0" stop-color="#f87cfc"/><stop offset="1" stop-color="purple"/></linearGradient><linearGradient id="linear-gradient-2" x1="476.59" y1="737.65" x2="161.89" y2="1282.73" gradientUnits="userSpaceOnUse"><stop offset="0" stop-color="#f87cfc"/><stop offset="1" stop-color="#1f1fff"/></linearGradient><linearGradient id="linear-gradient-3" x1="289.34" y1="746.48" x2="266.4" y2="786.21" xlink:href="#linear-gradient"/></defs><title>Asset 4</title><g id="Layer_2" data-name="Layer 2"><g id="Layer_1-2" data-name="Layer 1"><path class="cls-1" d="M4.25,1232.66c9.28,31.24,26.09,67.49,29,72,43,66.5,211,63.43,236.13-15.94l81.26-623.14c.31-2.79-99,207.18-93.6,226.47a31.88,31.88,0,0,1,.93,8.77l-.83,93a38.9,38.9,0,0,1-.41,5.18L235.4,1141.68c-1.73,11-13.64,135.25-40.15,151-9.83,5.83-191.47,17.89-94.42-43,22.42-14,92.9-81.9-23.82-95.9C38.74,1149.22-10.75,1182.16,4.25,1232.66Z"/><path class="cls-2" d="M278.26,730,410.84,493.42l16-60.79s-11.46,55.73-13.68,62.8c-7.54,24-29,83.63-56.84,152.67-32.61,81-74.63,174.9-99.86,238.63-18.32-127.85,2.09-251.35,42.73-372.79.3-.88,23.79-81.92,24.13-83.09C308,483.62,284.69,625.28,278.26,681,277.29,689.7,270.11,727.37,278.26,730Z"/><path class="cls-3" d="M257.39,1336.37h0c7.9.75,43.35-4.14,47.85-10.77l29.59-171,7-122.47,8.82-366.56c.75-7.89-18.42,55-23.66,72.45,0,0-18.24,75.28-29.45,124.8L286,1065.3l-41.49,255.41A14.35,14.35,0,0,0,257.39,1336.37Z"/><path class="cls-2" d="M895.84,1135.78c41.19,38.44,27.17,81.87,1.74,121-53.76,82.67-131.58,85.5-217.74,59.24-94.69-28.86-176.92-128.6-289.73-56.55-29.54,18.86-52.92,47.27-78.35,72.51a6.75,6.75,0,0,1-6.36,1.84c-1.43-.36-1.88-1-3.3-2.53a5.52,5.52,0,0,1-1.13-5.36h0a1.12,1.12,0,0,0,.2-.63c0-3.24,0-6.47-.05-9.71a1.45,1.45,0,0,1,0-.3C334.5,1203.45,339.4,1088.55,338.78,973q-.11-11.29-.19-22.59-.66-19.46-1.3-38.93v-.08q1.83-42.23,3.64-84.44l2.79-61.5c.83-24.22,3.16-48.52,4-72.74,0-.06,0-1.91,0-2s1.2-13,1.63-14.79c0-.1,1-8.44,1.57-12.5,2.33-6.41,3.9-43.19,12.56-42.8,1.07,27.63-3.75,105.63-2.67,133.26.37,4.3.29,8.57.65,12.87,1.66,19.95,5.18,103.39,6.84,123.34,1.21,10.65,4.69,41.08,5.38,47.28,16.54,77.47,44.07,182.4,36.1,262.76-.08.8,1,1.24,1.65.82,111.07-68.58,214-25.79,313.63,41.39l.12.06,10,5a1.07,1.07,0,0,0,1.49-.6q1.51-4.29,3-8.56a1,1,0,0,1,.57-.61l.84-.35c.16,3.83.33,7.66.49,11.49a1.08,1.08,0,0,0,.67.95c47,19.36,89.23,9.72,124.29-25.11,22.63-22.49,34.18-50.16,19.61-81.91Z"/><path class="cls-4" d="M335.66,183.85c11.93,102.83,56.47-52.64,121-57.34,55-4,22.79-136.27-16.34-123.66C322.65,40.78,333.1,161.8,335.66,183.85Z"/><path class="cls-2" d="M373.68,363.47c-7-25.66-40.64-127.6-31-189.1C351.56,117.75,410.18,5.6,453,21.87c32.9,12.49,38,57,30,91-5.73,41.16-9.1,63.41-51.37,102C382.46,259.87,384.4,333.73,373.68,363.47Z"/><path class="cls-2" d="M513.44,428.18c33.06,101.4,89.92,307.4,85.29,309-35.34-100.67-72.05-211.66-107.39-312.33C498.25,422.52,506.53,430.51,513.44,428.18Z"/><rect class="cls-5" x="321.34" y="406.85" width="190.5" height="24"/><polygon class="cls-6" points="318.9 760.17 336.35 700.16 347.68 675.23 322.68 761.26 318.9 760.17"/><rect class="cls-7" x="341.34" y="396.51" width="86.67" height="43" rx="12"/><rect class="cls-8" x="352.34" y="405.51" width="60.83" height="25.33" rx="12"/><path class="cls-2" d="M536.59,307,491.34,405c6.84.34,22.17.34,22.17.34.22,0,15.6-52.17,26.83-96.5C546.19,285.75,536.59,307,536.59,307Z"/><path class="cls-2" d="M319.47,404.85l4,.12,0-5.73A46.68,46.68,0,0,0,314,371.38c-107.18-141.82,8.76-255.25,27-256.53,1.1-.08,2.19-10.51-2.4-9-.66.21-7.86,6.21-8.22,6.5-133.86,108.73-11.08,272.08-11,272.55Z"/><path class="cls-2" d="M541.39,305.18c-13,9.58-34.72,15-50.05-45.49-3-11.84-5-79.09,9.73-78.89.15,0,0-.29.09-.44.76-2.81.11-.09.93-.64C543.7,152.1,484,102,485.2,101.17h0c-.52-6.82,2.89-4.5,5.59-2.32,15.37,12.36,23.67,27.82,30.89,41.5,9.66,18.33-11,42.5-11,42.5-21.3,6.66-12.3,66.66-12.3,66.66,3.3,54.08,29.11,62.24,38.7,51a5.83,5.83,0,0,0,1.37-3.79c0-3.95-1.91-8.8-3-11.28a3.47,3.47,0,0,1,1.44-4.45,4.23,4.23,0,0,1,1.58-.49c2.45-.26,5.51-.2,5.23,3.64"/><text class="cls-9" transform="translate(598.99 1075.23)">ead</text><text class="cls-10" transform="translate(939.9 1249.71)">Collection</text><ellipse class="cls-11" cx="277.87" cy="766.35" rx="19.66" ry="23.93"/></g></g></svg>